<?xml version="1.0" encoding="utf-8"?>
<!-- Generator: Adobe Illustrator 23.0.6, SVG Export Plug-In . SVG Version: 6.00 Build 0)  -->
<svg version="1.1" id="Layer_1" xmlns="http://www.w3.org/2000/svg" xmlns:xlink="http://www.w3.org/1999/xlink" x="0px" y="0px"
	 viewBox="0 0 1892 651.4" style="enable-background:new 0 0 1892 651.4;" xml:space="preserve">
<style type="text/css">
	.st0{enable-background:new    ;}
	.st1{fill:#5C5C5C;}
	.st2{fill:#FF6600;}
	.st3{fill:#FFFFFF;}
	.st4{fill:none;}
</style>
<g>
	<g class="st0">
		<path class="st1" d="M94.4,649.8l-57.8-82.1c-2.3-3.2-5.6-9-7.1-11.8h-0.4c0.4,5.8,0.6,10.2,0.6,13.6v80.4H14.8V539.7h18.5L88,618
			c2.1,3,4.4,6.7,7.1,11.5h0.4c-0.4-5.9-0.6-8.8-0.6-13.1v-76.7h14.8v110.1H94.4z"/>
		<path class="st1" d="M273.3,649.8V539.7h61.4v9.9H291V588h39.3v9.8H291v42.1h43.7v9.9H273.3z"/>
		<path class="st1" d="M528.9,549.6v100.2h-17.7V549.6h-27.9v-9.9h73.6v9.9H528.9z"/>
		<path class="st1" d="M816.2,649.8h-15.6L778.1,573c-1.3-4.8-1.9-8.6-2.5-12.6h-0.4c-0.6,3.5-1.3,7.8-2.7,12.6l-22.3,76.8h-15.8
			l-31-110.1h18.1l19.4,79.6c1,4,1.7,8.8,2.3,13.4h0.4c0.8-4.8,1.3-8.3,2.9-13.4l22.9-79.6h13.7l22.1,79.6c1,3.2,2.3,10.4,2.7,13.4
			h0.4c0.6-3.5,2.1-11.2,2.7-13.4l19.8-79.6h16.4L816.2,649.8z"/>
		<path class="st1" d="M1044.1,651.4c-33.3,0-47.9-24.8-47.9-56.7c0-31.9,14.6-56.7,47.9-56.7c33.3,0,47.9,24.8,47.9,56.7
			C1092,626.6,1077.4,651.4,1044.1,651.4z M1044.1,548.2c-22.9,0-30,21.6-30,46.3c0,24.6,7.1,46.4,30,46.4c22.9,0,30-21.8,30-46.4
			C1074.1,569.8,1067,548.2,1044.1,548.2z"/>
		<path class="st1" d="M1314.7,649.8l-25.2-36c-5-7.2-11.6-12.6-20.8-14.6v50.6h-17.1V544c8.9-3.5,21-5.9,32.7-5.9
			c29.3,0,46.2,10.7,46.2,31.2c0,15.8-15.2,27.7-37,30.3v0.3c5.2,3.5,9.6,8.2,13.3,12.8l28.1,37.1H1314.7z M1284.6,546.9
			c-6,0-11.7,1-16,2.2V593c3.5,0.6,7.9,0.8,12.1,0.8c19.8,0,32.5-10.1,32.5-24.2C1313.3,554.4,1303.5,546.9,1284.6,546.9z"/>
		<path class="st1" d="M1554.6,649.8l-46.2-57h-0.4v57h-17.3V539.7h17.3v51.1h0.4l45.8-51.1h19.4l-49.1,51.4l51.2,58.7H1554.6z"/>
		<path class="st1" d="M1754.2,651.4c-12.5,0-24.5-2.1-32.5-6.1l5.2-9.9c7.1,3.5,16.6,5.1,26,5.1c16.4,0,25.2-8.2,25.2-18.9
			c0-27.2-54.9-18.9-54.9-54.9c0-17.3,16-28.7,39.7-28.7c11,0,21.2,2.6,28.3,6.1l-4.6,9c-5.6-2.9-14.4-5-22.3-5
			c-14.8,0-23.5,6.4-23.5,17.6c0,26.7,55.5,17.9,55.5,55.1C1796.2,638.5,1779.6,651.4,1754.2,651.4z"/>
	</g>
	<g>
		<path class="st1" d="M861.7,440.1H575V51.2h286.6v75.2h-185v67.1h171.7v75.2H676.7v96.1h185V440.1z"/>
		<path class="st1" d="M1307.7,440.1h-98.5L1041,173.2v266.9h-93.7V51.2h122.1L1214,274V51.2h93.7V440.1z"/>
		<path class="st1" d="M1775,440.1h-105.5l-27.6-78.6h-146.6l-27.6,78.6h-103L1511,51.2h117.6L1775,440.1z M1617.3,290.2
			l-48.8-139.3l-48.8,139.3H1617.3z"/>
	</g>
	<g>
		<g>
			<rect id="Rectangle_52_1_" x="0.4" class="st1" width="511.5" height="316.9"/>
			<path id="Path_50_1_" class="st2" d="M0.4,315.5h511.5V480H0.4V315.5z"/>
			<path class="st3" d="M314.2,244.8L466.5,49.6l-81.5,0c-14.6-0.1-23.8,0.5-31.6,5.1c-8.5,4.9-13.2,10.5-19.7,18.6l-77.5,98.1
				l-77.5-98.1c-6.5-8.1-11.2-13.7-19.7-18.6c-7.9-4.6-17-5.2-31.6-5.1l-81.5,0l152.3,195.3L45.8,440.1l81.5,0
				c14.6,0.1,23.8-0.5,31.6-5.1c8.5-4.9,13.2-10.5,19.7-18.6l77.5-98.1l77.5,98.1c6.5,8.1,11.2,13.7,19.7,18.6
				c7.9,4.6,17,5.2,31.6,5.1l81.5,0L314.2,244.8z"/>
		</g>
		<rect id="Rectangle_51_1_" x="3.8" y="5.2" class="st4" width="505.2" height="474.1"/>
		<rect y="299.3" class="st3" width="512.5" height="16.8"/>
	</g>
	<g>
		<path class="st1" d="M1808.9,58.1h-16.4v-5.9h39.9v5.9H1816v48h-7V58.1z"/>
		<path class="st1" d="M1883.9,82.4c-0.4-7.5-0.9-16.6-0.8-23.3h-0.2c-1.8,6.3-4.1,13-6.8,20.5l-9.5,26.1h-5.3l-8.7-25.7
			c-2.6-7.6-4.7-14.6-6.2-20.9h-0.2c-0.2,6.7-0.6,15.8-1,23.8l-1.4,23.1h-6.6l3.8-53.9h8.9l9.2,26.1c2.2,6.6,4.1,12.6,5.4,18.2h0.2
			c1.4-5.4,3.3-11.4,5.7-18.2l9.6-26.1h8.9l3.4,53.9h-6.8L1883.9,82.4z"/>
	</g>
</g>
</svg>
